<?xml version="1.0" encoding="UTF-8" standalone="no"?>
<svg
   xmlns:osb="http://www.openswatchbook.org/uri/2009/osb"
   xmlns:dc="http://purl.org/dc/elements/1.1/"
   xmlns:cc="http://creativecommons.org/ns#"
   xmlns:rdf="http://www.w3.org/1999/02/22-rdf-syntax-ns#"
   xmlns:svg="http://www.w3.org/2000/svg"
   xmlns="http://www.w3.org/2000/svg"
   xmlns:sodipodi="http://sodipodi.sourceforge.net/DTD/sodipodi-0.dtd"
   xmlns:inkscape="http://www.inkscape.org/namespaces/inkscape"
   version="1.1"
   viewBox="0 0 32 32"
   preserveAspectRatio="xMidYMid"
   id="svg2"
   inkscape:version="0.48.2 r9819"
   width="100%"
   height="100%"
   sodipodi:docname="classification.svg"
   style="fill-rule:evenodd">
  <metadata
     id="metadata1054">
    <rdf:RDF>
      <cc:Work
         rdf:about="">
        <dc:format>image/svg+xml</dc:format>
        <dc:type
           rdf:resource="http://purl.org/dc/dcmitype/StillImage" />
        <dc:title />
      </cc:Work>
    </rdf:RDF>
  </metadata>
  <defs
     id="defs1052">
    <linearGradient
       id="linearGradient5776"
       osb:paint="solid">
      <stop
         style="stop-color:#002d9b;stop-opacity:1;"
         offset="0"
         id="stop5778" />
    </linearGradient>
    <linearGradient
       id="linearGradient4332">
      <stop
         style="stop-color:#006200;stop-opacity:1;"
         offset="0"
         id="stop4334" />
      <stop
         style="stop-color:#002d9b;stop-opacity:0;"
         offset="1"
         id="stop4336" />
    </linearGradient>
  </defs>
  <sodipodi:namedview
     pagecolor="#ffffff"
     bordercolor="#666666"
     borderopacity="1"
     objecttolerance="10"
     gridtolerance="10"
     guidetolerance="10"
     inkscape:pageopacity="0"
     inkscape:pageshadow="2"
     inkscape:window-width="1920"
     inkscape:window-height="1139"
     id="namedview1050"
     showgrid="true"
     inkscape:zoom="14.609375"
     inkscape:cx="4.2579252"
     inkscape:cy="8.2777323"
     inkscape:window-x="0"
     inkscape:window-y="0"
     inkscape:window-maximized="1"
     inkscape:current-layer="svg2"
     fit-margin-top="0"
     fit-margin-left="0"
     fit-margin-right="0"
     fit-margin-bottom="0"
     inkscape:snap-global="true">
    <inkscape:grid
       type="xygrid"
       id="grid6162" />
  </sodipodi:namedview>
  <path
     style="fill:#2d7000;fill-opacity:0.35294118;stroke:none"
     d="M 0,0 17.914439,15.68984 10,32 0,32 z"
     id="path4310"
     inkscape:connector-curvature="0"
     sodipodi:nodetypes="ccccc" />
  <path
     style="fill:#002d70;fill-opacity:0.35294119;stroke:none"
     d="M 17.892536,15.681182 32,10 32,0 0,0 z"
     id="path5782"
     inkscape:connector-curvature="0"
     sodipodi:nodetypes="ccccc" />
  <path
     style="fill:#ff8000;fill-opacity:0.35294119;stroke:none"
     d="M 10,32 17.910156,15.6875 32,10 32,32 z"
     id="path5784"
     inkscape:connector-curvature="0"
     sodipodi:nodetypes="ccccc" />
  <g
     visibility="visible"
     id="Default"
     class="Master_Slide"
     style="visibility:visible"
     transform="translate(-4962.7521,-12890.719)">
    <g
       style="fill:none;stroke:none"
       id="g5">
      <rect
         x="0"
         y="0"
         width="21000"
         height="29700"
         id="rect7" />
    </g>
  </g>
  <path
     sodipodi:type="arc"
     style="fill:#002d9b;fill-opacity:0.78431374;fill-rule:evenodd;stroke:#000000;stroke-width:0.76415264999999999;stroke-linecap:butt;stroke-linejoin:miter;stroke-miterlimit:4;stroke-opacity:1;stroke-dasharray:none"
     id="path3509-6-89"
     sodipodi:cx="8.8770056"
     sodipodi:cy="9.1657753"
     sodipodi:rx="5.2941175"
     sodipodi:ry="5.2941175"
     d="m 14.171123,9.1657753 a 5.2941175,5.2941175 0 1 1 -10.5882349,0 5.2941175,5.2941175 0 1 1 10.5882349,0 z"
     transform="matrix(0.26172782,0,0,0.26172782,15.610276,5.2126981)" />
  <path
     sodipodi:type="arc"
     style="fill:#ff8000;fill-opacity:0.78431374;fill-rule:evenodd;stroke:#000000;stroke-width:0.76415264999999999;stroke-linecap:butt;stroke-linejoin:miter;stroke-miterlimit:4;stroke-opacity:1;stroke-dasharray:none"
     id="path3509-6-89-4"
     sodipodi:cx="8.8770056"
     sodipodi:cy="9.1657753"
     sodipodi:rx="5.2941175"
     sodipodi:ry="5.2941175"
     d="m 14.171123,9.1657753 a 5.2941175,5.2941175 0 1 1 -10.5882349,0 5.2941175,5.2941175 0 1 1 10.5882349,0 z"
     transform="matrix(0.26172782,0,0,0.26172782,25.582891,16.007312)" />
  <path
     sodipodi:type="arc"
     style="fill:#2d7000;fill-opacity:0.78431374;fill-rule:evenodd;stroke:#000000;stroke-width:0.76415264999999999;stroke-linecap:butt;stroke-linejoin:miter;stroke-miterlimit:4;stroke-opacity:1;stroke-dasharray:none"
     id="path3509-6-89-3-1"
     sodipodi:cx="8.8770056"
     sodipodi:cy="9.1657753"
     sodipodi:rx="5.2941175"
     sodipodi:ry="5.2941175"
     d="m 14.171123,9.1657753 a 5.2941175,5.2941175 0 1 1 -10.5882349,0 5.2941175,5.2941175 0 1 1 10.5882349,0 z"
     transform="matrix(0.26172782,0,0,0.26172782,9.3016407,14.851062)" />
  <path
     sodipodi:type="arc"
     style="fill:#002d9b;fill-opacity:0.78431374;fill-rule:evenodd;stroke:#000000;stroke-width:0.76415264999999999;stroke-linecap:butt;stroke-linejoin:miter;stroke-miterlimit:4;stroke-opacity:1;stroke-dasharray:none"
     id="path3509-6-89-43"
     sodipodi:cx="8.8770056"
     sodipodi:cy="9.1657753"
     sodipodi:rx="5.2941175"
     sodipodi:ry="5.2941175"
     d="m 14.171123,9.1657753 a 5.2941175,5.2941175 0 1 1 -10.5882349,0 5.2941175,5.2941175 0 1 1 10.5882349,0 z"
     transform="matrix(0.26172782,0,0,0.26172782,21.364141,5.4760617)" />
  <path
     sodipodi:type="arc"
     style="fill:#002d9b;fill-opacity:0.78431374;fill-rule:evenodd;stroke:#000000;stroke-width:0.76415264999999999;stroke-linecap:butt;stroke-linejoin:miter;stroke-miterlimit:4;stroke-opacity:1;stroke-dasharray:none"
     id="path3509-6-89-36"
     sodipodi:cx="8.8770056"
     sodipodi:cy="9.1657753"
     sodipodi:rx="5.2941175"
     sodipodi:ry="5.2941175"
     d="m 14.171123,9.1657753 a 5.2941175,5.2941175 0 1 1 -10.5882349,0 5.2941175,5.2941175 0 1 1 10.5882349,0 z"
     transform="matrix(0.26172782,0,0,0.26172782,9.8223255,0.77339666)" />
  <path
     sodipodi:type="arc"
     style="fill:#002d9b;fill-opacity:0.78431374;fill-rule:evenodd;stroke:#000000;stroke-width:0.76415264999999999;stroke-linecap:butt;stroke-linejoin:miter;stroke-miterlimit:4;stroke-opacity:1;stroke-dasharray:none"
     id="path3509-6-89-1"
     sodipodi:cx="8.8770056"
     sodipodi:cy="9.1657753"
     sodipodi:rx="5.2941175"
     sodipodi:ry="5.2941175"
     d="m 14.171123,9.1657753 a 5.2941175,5.2941175 0 1 1 -10.5882349,0 5.2941175,5.2941175 0 1 1 10.5882349,0 z"
     transform="matrix(0.26172782,0,0,0.26172782,20.739141,0.3113096)" />
  <path
     sodipodi:type="arc"
     style="fill:#ff8000;fill-opacity:0.78431374;fill-rule:evenodd;stroke:#000000;stroke-width:0.76415264999999999;stroke-linecap:butt;stroke-linejoin:miter;stroke-miterlimit:4;stroke-opacity:1;stroke-dasharray:none"
     id="path3509-6-89-4-3"
     sodipodi:cx="8.8770056"
     sodipodi:cy="9.1657753"
     sodipodi:rx="5.2941175"
     sodipodi:ry="5.2941175"
     d="m 14.171123,9.1657753 a 5.2941175,5.2941175 0 1 1 -10.5882349,0 5.2941175,5.2941175 0 1 1 10.5882349,0 z"
     transform="matrix(0.26172782,0,0,0.26172782,25.176641,26.601062)" />
  <path
     sodipodi:type="arc"
     style="fill:#ff8000;fill-opacity:0.78431374;fill-rule:evenodd;stroke:#000000;stroke-width:0.76415264999999999;stroke-linecap:butt;stroke-linejoin:miter;stroke-miterlimit:4;stroke-opacity:1;stroke-dasharray:none"
     id="path3509-6-89-4-8"
     sodipodi:cx="8.8770056"
     sodipodi:cy="9.1657753"
     sodipodi:rx="5.2941175"
     sodipodi:ry="5.2941175"
     d="m 14.171123,9.1657753 a 5.2941175,5.2941175 0 1 1 -10.5882349,0 5.2941175,5.2941175 0 1 1 10.5882349,0 z"
     transform="matrix(0.26172782,0,0,0.26172782,18.301641,17.476062)" />
  <path
     sodipodi:type="arc"
     style="fill:#ff8000;fill-opacity:0.78431374;fill-rule:evenodd;stroke:#000000;stroke-width:0.76415264999999999;stroke-linecap:butt;stroke-linejoin:miter;stroke-miterlimit:4;stroke-opacity:1;stroke-dasharray:none"
     id="path3509-6-89-4-7"
     sodipodi:cx="8.8770056"
     sodipodi:cy="9.1657753"
     sodipodi:rx="5.2941175"
     sodipodi:ry="5.2941175"
     d="m 14.171123,9.1657753 a 5.2941175,5.2941175 0 1 1 -10.5882349,0 5.2941175,5.2941175 0 1 1 10.5882349,0 z"
     transform="matrix(0.26172782,0,0,0.26172782,18.114141,22.851062)" />
  <path
     sodipodi:type="arc"
     style="fill:#ff8000;fill-opacity:0.78431374;fill-rule:evenodd;stroke:#000000;stroke-width:0.76415264999999999;stroke-linecap:butt;stroke-linejoin:miter;stroke-miterlimit:4;stroke-opacity:1;stroke-dasharray:none"
     id="path3509-6-89-4-5"
     sodipodi:cx="8.8770056"
     sodipodi:cy="9.1657753"
     sodipodi:rx="5.2941175"
     sodipodi:ry="5.2941175"
     d="m 14.171123,9.1657753 a 5.2941175,5.2941175 0 1 1 -10.5882349,0 5.2941175,5.2941175 0 1 1 10.5882349,0 z"
     transform="matrix(0.26172782,0,0,0.26172782,23.176641,20.663562)" />
  <path
     sodipodi:type="arc"
     style="fill:#2d7000;fill-opacity:0.78431374;fill-rule:evenodd;stroke:#000000;stroke-width:0.76415264999999999;stroke-linecap:butt;stroke-linejoin:miter;stroke-miterlimit:4;stroke-opacity:1;stroke-dasharray:none"
     id="path3509-6-89-3-1-1"
     sodipodi:cx="8.8770056"
     sodipodi:cy="9.1657753"
     sodipodi:rx="5.2941175"
     sodipodi:ry="5.2941175"
     d="m 14.171123,9.1657753 a 5.2941175,5.2941175 0 1 1 -10.5882349,0 5.2941175,5.2941175 0 1 1 10.5882349,0 z"
     transform="matrix(0.26172782,0,0,0.26172782,7.676641,20.663562)" />
  <path
     sodipodi:type="arc"
     style="fill:#2d7000;fill-opacity:0.78431374;fill-rule:evenodd;stroke:#000000;stroke-width:0.76415264999999999;stroke-linecap:butt;stroke-linejoin:miter;stroke-miterlimit:4;stroke-opacity:1;stroke-dasharray:none"
     id="path3509-6-89-3-1-6"
     sodipodi:cx="8.8770056"
     sodipodi:cy="9.1657753"
     sodipodi:rx="5.2941175"
     sodipodi:ry="5.2941175"
     d="m 14.171123,9.1657753 a 5.2941175,5.2941175 0 1 1 -10.5882349,0 5.2941175,5.2941175 0 1 1 10.5882349,0 z"
     transform="matrix(0.26172782,0,0,0.26172782,2.3016407,14.913562)" />
  <path
     sodipodi:type="arc"
     style="fill:#2d7000;fill-opacity:0.78431374;fill-rule:evenodd;stroke:#000000;stroke-width:0.76415264999999999;stroke-linecap:butt;stroke-linejoin:miter;stroke-miterlimit:4;stroke-opacity:1;stroke-dasharray:none"
     id="path3509-6-89-3-1-0"
     sodipodi:cx="8.8770056"
     sodipodi:cy="9.1657753"
     sodipodi:rx="5.2941175"
     sodipodi:ry="5.2941175"
     d="m 14.171123,9.1657753 a 5.2941175,5.2941175 0 1 1 -10.5882349,0 5.2941175,5.2941175 0 1 1 10.5882349,0 z"
     transform="matrix(0.26172782,0,0,0.26172782,1.9266407,7.351062)" />
  <path
     sodipodi:type="arc"
     style="fill:#2d7000;fill-opacity:0.78431374;fill-rule:evenodd;stroke:#000000;stroke-width:0.76415264999999999;stroke-linecap:butt;stroke-linejoin:miter;stroke-miterlimit:4;stroke-opacity:1;stroke-dasharray:none"
     id="path3509-6-89-3-1-3"
     sodipodi:cx="8.8770056"
     sodipodi:cy="9.1657753"
     sodipodi:rx="5.2941175"
     sodipodi:ry="5.2941175"
     d="m 14.171123,9.1657753 a 5.2941175,5.2941175 0 1 1 -10.5882349,0 5.2941175,5.2941175 0 1 1 10.5882349,0 z"
     transform="matrix(0.26172782,0,0,0.26172782,1.9891407,24.851062)" />
</svg>
