<?xml version="1.0" encoding="UTF-8" standalone="no"?>
<!-- Generator: Adobe Illustrator 15.0.0, SVG Export Plug-In . SVG Version: 6.00 Build 0)  -->

<svg
   xmlns:dc="http://purl.org/dc/elements/1.1/"
   xmlns:cc="http://creativecommons.org/ns#"
   xmlns:rdf="http://www.w3.org/1999/02/22-rdf-syntax-ns#"
   xmlns:svg="http://www.w3.org/2000/svg"
   xmlns="http://www.w3.org/2000/svg"
   xmlns:sodipodi="http://sodipodi.sourceforge.net/DTD/sodipodi-0.dtd"
   xmlns:inkscape="http://www.inkscape.org/namespaces/inkscape"
   version="1.1"
   id="Ebene_1"
   x="0px"
   y="0px"
   width="32"
   height="32"
   viewBox="0 0 32 32"
   enable-background="new 0 0 749.966 659.078"
   xml:space="preserve"
   inkscape:version="0.48.2 r9819"
   sodipodi:docname="slip.svg"><metadata
   id="metadata15"><rdf:RDF><cc:Work
       rdf:about=""><dc:format>image/svg+xml</dc:format><dc:type
         rdf:resource="http://purl.org/dc/dcmitype/StillImage" /><dc:title /></cc:Work></rdf:RDF></metadata><defs
   id="defs13" /><sodipodi:namedview
   pagecolor="#ffffff"
   bordercolor="#666666"
   borderopacity="1"
   objecttolerance="10"
   gridtolerance="10"
   guidetolerance="10"
   inkscape:pageopacity="0"
   inkscape:pageshadow="2"
   inkscape:window-width="1920"
   inkscape:window-height="1139"
   id="namedview11"
   showgrid="false"
   inkscape:zoom="14.796255"
   inkscape:cx="22.397095"
   inkscape:cy="19.195305"
   inkscape:window-x="0"
   inkscape:window-y="0"
   inkscape:window-maximized="1"
   inkscape:current-layer="Ebene_1"
   fit-margin-top="0"
   fit-margin-left="0"
   fit-margin-right="0"
   fit-margin-bottom="0" />




<path
   d="m 14.717456,2.1476079 0,0 L 0.26971598,27.172601 c -0.13113921,0.226811 -0.20045539,0.484105 -0.20045539,0.745699 0,0.821018 0.66927535,1.489905 1.49101511,1.489905 H 30.456523 c 0.260869,0 0.518888,-0.06893 0.744206,-0.200452 0.711592,-0.410146 0.956075,-1.322834 0.545924,-2.035152 L 17.298146,2.1476079 C 17.168076,1.9222891 16.978989,1.7338828 16.752948,1.6023615 16.041738,1.1922155 15.128669,1.4367788 14.717456,2.1476079"
   id="path3"
   inkscape:connector-curvature="0"
   style="fill:#ffffff" /><path
   d="m 16.007971,1.3749141 c -0.52391,0 -1.034284,0.2722814 -1.314357,0.7591942 L 0.24485254,27.159105 c -0.13331215,0.230342 -0.20296877,0.492662 -0.20296877,0.759195 0,0.838771 0.67953634,1.518348 1.51762593,1.518348 H 30.456479 c 0.26581,0 0.527445,-0.07038 0.757746,-0.203987 0.489042,-0.28148 0.760601,-0.792575 0.759154,-1.318618 0,-0.257337 -0.0654,-0.516804 -0.202584,-0.754897 L 17.321607,2.1341083 C 17.188724,1.9030854 16.996745,1.7118732 16.766485,1.5782641 16.527244,1.4403135 16.266716,1.3749141 16.007971,1.3749141 M 1.5595097,29.380488 c -0.80573388,0 -1.46180577,-0.656117 -1.46180577,-1.462229 0,-0.256571 0.06786578,-0.509693 0.19513251,-0.73071 L 14.741639,2.1617848 c 0.259806,-0.4506377 0.745317,-0.7307101 1.266332,-0.7307101 0.255551,0 0.508246,0.067529 0.731096,0.1954729 0.221018,0.1286666 0.406612,0.3134947 0.534216,0.5352372 L 31.721745,27.187549 c 0.403761,0.698051 0.162093,1.593708 -0.534556,1.996699 -0.221784,0.128626 -0.475545,0.196199 -0.73071,0.196199 H 1.5595097 z"
   id="path5"
   inkscape:connector-curvature="0" /><path
   d="m 1.5602314,28.867264 c -0.5249762,0 -0.94929994,-0.425776 -0.94929994,-0.948964 0,-0.16703 0.0437249,-0.329844 0.12760448,-0.474821 L 15.186232,2.4184416 c 0.26232,-0.4534915 0.842347,-0.6091954 1.296564,-0.3468788 0.143184,0.082476 0.263382,0.202584 0.34726,0.3468788 L 31.27673,27.443435 c 0.263042,0.454258 0.107339,1.033563 -0.346152,1.296564 -0.144296,0.08319 -0.307791,0.127219 -0.47414,0.127219 M 4.8464325,26.020333 H 27.169556 L 16.007971,6.6877045 4.8464325,26.020333 z"
   id="path7"
   style="fill:#c1121c;fill-opacity:1"
   inkscape:connector-curvature="0" /><path
   d="m 14.395785,21.371495 c 0.104144,0 0.189424,0.04262 0.189424,0.09452 0,0.04701 -0.06859,0.08749 -0.1603,0.09388 l -0.420111,0.03269 c -2.387349,0.184782 -3.973566,0.66531 -3.973566,1.201999 0,0.167711 0.176269,0.322012 0.463839,0.408018 l 0.05369,0.01562 c 0.08035,0.02417 0.126158,0.10802 0.102016,0.189044 -0.01596,0.05548 -0.06323,0.09669 -0.120108,0.106653 l -0.08281,0.01351 c -0.6582037,0.109423 -1.3349261,-0.130118 -1.5126432,-0.536007 -0.028388,-0.06395 -0.04228,-0.130115 -0.04228,-0.196877 -8.51e-5,-0.786145 2.4633062,-1.423057 5.5028562,-1.423057 m -3.41593,3.889687 c -0.34083,0 -0.68064,-0.03413 -1.0147444,-0.100953 -0.1791231,-0.03694 -0.2957006,-0.211819 -0.259085,-0.391667 0.036278,-0.179846 0.2111011,-0.295656 0.3909874,-0.259422 0.0079,0.0015 0.01528,0.0037 0.02239,0.0057 l 0.158853,0.04334 c 0.320949,0.08886 0.652881,0.13433 0.986304,0.13433 1.152992,0 2.087348,-0.34049 2.087348,-0.758428 0,-0.143614 -0.159239,-0.27867 -0.424367,-0.356159 l -0.349391,-0.105209 c -0.343344,-0.101631 -0.554441,-0.288591 -0.554441,-0.489002 0,-0.653984 1.996407,-1.18569 4.459076,-1.18569 0.104866,0 0.189806,0.04266 0.189806,0.09524 0,0.04692 -0.0668,0.08601 -0.159238,0.09312 l -0.302127,0.02491 c -1.895454,0.156343 -3.14365,0.542307 -3.14365,0.972419 0,0.143574 0.159198,0.276457 0.423984,0.356119 l 0.349007,0.10444 c 0.344065,0.1024 0.555163,0.287908 0.555163,0.489812 4.4e-5,0.732157 -1.52929,1.32709 -3.415886,1.32709 z m 6.546464,-3.035973 c 0.0711,0 0.129352,0.02917 0.129352,0.06472 0,0.02206 -0.02269,0.04266 -0.06115,0.05404 l -0.130073,0.04125 c -0.312047,0.0981 -0.50718,0.292125 -0.50718,0.503989 0,0.479081 0.856186,0.882838 1.996403,0.941853 l 2.146702,0.11087 c 1.110331,0.05761 1.927813,0.376043 1.927813,0.75068 0,0.314219 -0.551628,0.568662 -1.232612,0.568662 -0.02129,0 -0.03768,-0.01707 -0.03768,-0.03836 0,-0.0099 0.0043,-0.02066 0.01136,-0.02776 l 0.07748,-0.0703 c 0.08959,-0.08319 0.13791,-0.184871 0.13791,-0.290762 0,-0.29144 -0.516078,-0.536641 -1.194248,-0.56581 l -2.40404,-0.103811 c -1.351277,-0.05901 -2.378451,-0.526679 -2.378451,-1.085421 4e-5,-0.47069 0.679958,-0.853844 1.518388,-0.853844 z M 11.70495,16.536323 c 0.03483,-0.130795 0.111255,-0.245926 0.216805,-0.329758 l 0.163836,-0.127264 c 0.114064,-0.09026 0.217526,-0.194111 0.308475,-0.30779 l 1.282723,-1.61151 c 0.128663,-0.161363 0.341211,-0.23102 0.5406,-0.178394 l 5.017815,1.345613 c 0.200411,0.05331 0.349729,0.219656 0.380297,0.423642 l 0.30494,2.038001 c 0.02206,0.144296 0.05974,0.284334 0.113724,0.419386 l 0.07821,0.192623 c 0.04973,0.125091 0.05829,0.263679 0.02273,0.394518 l -0.349003,1.303716 c -0.07468,0.277178 -0.358969,0.442124 -0.636191,0.367486 l -7.427522,-1.988953 c -0.277263,-0.07537 -0.44178,-0.359693 -0.367526,-0.637637 l 0.350069,-1.303675 z m 1.168237,-0.548011 6.52407,1.747968 -0.265851,-1.770702 C 19.120036,15.884508 19.060336,15.817707 18.98,15.794972 l -4.775424,-1.278811 c -0.08034,-0.02132 -0.164562,0.0064 -0.216421,0.07107 l -1.114968,1.401089 z m -1.204854,2.689055 -0.295356,1.10394 c -0.04441,0.166308 0.05364,0.33768 0.220381,0.381748 l 0.602085,0.162092 c 0.165964,0.04407 0.336954,-0.05475 0.381362,-0.221062 l 0.296423,-1.103941 -1.204895,-0.322777 z m 6.223391,1.667665 1.204088,0.322693 -0.295661,1.1039 c -0.04483,0.166349 -0.216076,0.26517 -0.382429,0.221103 L 17.816399,21.830639 C 17.65005,21.786568 17.550507,21.61524 17.595977,21.448891 l 0.295742,-1.103856 z"
   id="path9"
   inkscape:connector-curvature="0" /></svg>